# xmcd
#
# Track frame offsets:
#	150
#	19139
#	35426
#	58606
#	74149
#	92977
#	120048
#	136973
#	150902
#	180337
#	198631
#	214114
#	233017
#	266011
#	286472
#
# Disc length: 4106 seconds
#
# Revision: 1
# Processed by: cddbd v1.5.2PL0 Copyright (c) Steve Scherf et al.
# Submitted via: audiograbber 1.83.01
#
DISCID=d210080f
DTITLE=Various Artist - Saw V Soundtrack
DYEAR=2008
DGENRE=Metal
TTITLE0=Charlie Clouser - Trap Attacks
TTITLE1=Testament - True Believer
TTITLE2=Ministry - Death and destruction (Remix)
TTITLE3=Filter - What's next (The blood and Sand mix)
TTITLE4=The almighty - Thanks again, again
TTITLE5=Prong - The banishment
TTITLE6=Die Krupps - The dawning of doom
TTITLE7=Clutch - Power Player
TTITLE8=Skinny Puppy - Ugli
TTITLE9=William Control - Strangers
TTITLE10=Emilie Autumn - Unlaced
TTITLE11=Fixmer - McCarthy - Blood and music
TTITLE12=The revolting cocks - Wizard of sextown
TTITLE13=Funker Vogt - Date of expiration (Expired)
TTITLE14=Charlie Clouser - What it takes
EXTD=
EXTT0=
EXTT1=
EXTT2=
EXTT3=
EXTT4=
EXTT5=
EXTT6=
EXTT7=
EXTT8=
EXTT9=
EXTT10=
EXTT11=
EXTT12=
EXTT13=
EXTT14=
PLAYORDER=
